<svg width="74" height="22" viewBox="0 0 74 22" fill="none" xmlns="http://www.w3.org/2000/svg">
<path d="M7.16 21.272C5.89067 21.272 4.74827 21.1179 3.7328 20.8096C2.71733 20.4832 1.7472 19.9211 0.8224 19.1232C0.586667 18.9237 0.405334 18.6971 0.2784 18.4432C0.151467 18.1893 0.0880002 17.9355 0.0880002 17.6816C0.0880002 17.2645 0.233067 16.9019 0.5232 16.5936C0.831467 16.2672 1.21227 16.104 1.6656 16.104C2.01013 16.104 2.3184 16.2128 2.5904 16.4304C3.27947 16.9925 3.95947 17.4187 4.6304 17.7088C5.31947 17.9989 6.16267 18.144 7.16 18.144C7.83093 18.144 8.44747 18.0443 9.0096 17.8448C9.57173 17.6272 10.0251 17.3461 10.3696 17.0016C10.7141 16.6389 10.8864 16.2309 10.8864 15.7776C10.8864 15.2336 10.7232 14.7712 10.3968 14.3904C10.0704 14.0096 9.57173 13.6923 8.9008 13.4384C8.22987 13.1664 7.3776 12.9579 6.344 12.8128C5.3648 12.6677 4.50347 12.4501 3.76 12.16C3.01653 11.8517 2.39093 11.4709 1.8832 11.0176C1.3936 10.5461 1.02187 10.0021 0.768 9.3856C0.514134 8.75093 0.3872 8.04373 0.3872 7.264C0.3872 6.08533 0.6864 5.07893 1.2848 4.2448C1.90133 3.41066 2.7264 2.776 3.76 2.3408C4.7936 1.9056 5.936 1.688 7.1872 1.688C8.36587 1.688 9.45387 1.86933 10.4512 2.232C11.4667 2.57653 12.2917 3.0208 12.9264 3.5648C13.4523 3.98186 13.7152 4.4624 13.7152 5.0064C13.7152 5.40533 13.5611 5.768 13.2528 6.0944C12.9445 6.4208 12.5819 6.584 12.1648 6.584C11.8928 6.584 11.648 6.5024 11.4304 6.3392C11.1403 6.08533 10.7504 5.8496 10.2608 5.632C9.7712 5.39626 9.2544 5.20586 8.7104 5.0608C8.1664 4.8976 7.65867 4.816 7.1872 4.816C6.40747 4.816 5.7456 4.91573 5.2016 5.1152C4.67573 5.31466 4.2768 5.58666 4.0048 5.9312C3.7328 6.27573 3.5968 6.67466 3.5968 7.128C3.5968 7.672 3.75093 8.12533 4.0592 8.488C4.3856 8.83253 4.848 9.1136 5.4464 9.3312C6.0448 9.53067 6.76107 9.712 7.5952 9.8752C8.6832 10.0747 9.6352 10.3104 10.4512 10.5824C11.2853 10.8544 11.9744 11.208 12.5184 11.6432C13.0624 12.0603 13.4704 12.5952 13.7424 13.248C14.0144 13.8827 14.1504 14.6624 14.1504 15.5872C14.1504 16.7659 13.824 17.7813 13.1712 18.6336C12.5184 19.4859 11.6571 20.1387 10.5872 20.592C9.53547 21.0453 8.39307 21.272 7.16 21.272ZM23.8521 21.272C22.3108 21.272 20.9689 20.9547 19.8265 20.32C18.7022 19.6672 17.8318 18.7877 17.2153 17.6816C16.6169 16.5755 16.3177 15.3243 16.3177 13.928C16.3177 12.296 16.6441 10.9088 17.2969 9.7664C17.9678 8.60586 18.8382 7.71733 19.9081 7.1008C20.978 6.48426 22.1113 6.176 23.3081 6.176C24.2329 6.176 25.1033 6.3664 25.9193 6.7472C26.7534 7.128 27.4878 7.65386 28.1225 8.3248C28.7572 8.9776 29.2558 9.7392 29.6185 10.6096C29.9993 11.48 30.1897 12.4048 30.1897 13.384C30.1716 13.8192 29.9993 14.1728 29.6729 14.4448C29.3465 14.7168 28.9657 14.8528 28.5305 14.8528H18.1401L17.3241 12.1328H27.3065L26.7081 12.6768V11.9424C26.6718 11.4165 26.4814 10.9451 26.1369 10.528C25.8105 10.1109 25.3934 9.78453 24.8857 9.5488C24.3961 9.29493 23.8702 9.168 23.3081 9.168C22.7641 9.168 22.2564 9.24053 21.7849 9.3856C21.3134 9.53066 20.9054 9.77546 20.5609 10.12C20.2164 10.4645 19.9444 10.9269 19.7449 11.5072C19.5454 12.0875 19.4457 12.8219 19.4457 13.7104C19.4457 14.6896 19.6452 15.5237 20.0441 16.2128C20.4612 16.8837 20.987 17.4005 21.6217 17.7632C22.2745 18.1077 22.9636 18.28 23.6889 18.28C24.3598 18.28 24.8948 18.2256 25.2937 18.1168C25.6926 18.008 26.01 17.8811 26.2457 17.736C26.4996 17.5728 26.7262 17.4368 26.9257 17.328C27.2521 17.1648 27.5604 17.0832 27.8505 17.0832C28.2494 17.0832 28.5758 17.2192 28.8297 17.4912C29.1017 17.7632 29.2377 18.0805 29.2377 18.4432C29.2377 18.9328 28.9838 19.3771 28.4761 19.776C28.0046 20.1749 27.3428 20.5285 26.4905 20.8368C25.6382 21.1269 24.7588 21.272 23.8521 21.272ZM36.5774 19.3408C36.5774 19.8123 36.4142 20.2112 36.0878 20.5376C35.7796 20.8459 35.3897 21 34.9182 21C34.4649 21 34.0841 20.8459 33.7758 20.5376C33.4676 20.2112 33.3134 19.8123 33.3134 19.3408V2.5312C33.3134 2.05973 33.4676 1.66986 33.7758 1.3616C34.1022 1.0352 34.5012 0.871998 34.9726 0.871998C35.4441 0.871998 35.8249 1.0352 36.115 1.3616C36.4233 1.66986 36.5774 2.05973 36.5774 2.5312V19.3408ZM43.9087 19.3408C43.9087 19.8123 43.7455 20.2112 43.4191 20.5376C43.1108 20.8459 42.721 21 42.2495 21C41.7962 21 41.4154 20.8459 41.1071 20.5376C40.7988 20.2112 40.6447 19.8123 40.6447 19.3408V2.5312C40.6447 2.05973 40.7988 1.66986 41.1071 1.3616C41.4335 1.0352 41.8324 0.871998 42.3039 0.871998C42.7754 0.871998 43.1562 1.0352 43.4463 1.3616C43.7546 1.66986 43.9087 2.05973 43.9087 2.5312V19.3408ZM58.3695 6.448C58.841 6.448 59.2309 6.6112 59.5391 6.9376C59.8474 7.24587 60.0015 7.63573 60.0015 8.1072V15.016C60.0015 16.9381 59.4666 18.4613 58.3967 19.5856C57.3269 20.7099 55.7855 21.272 53.7727 21.272C51.7599 21.272 50.2186 20.7099 49.1487 19.5856C48.097 18.4613 47.5711 16.9381 47.5711 15.016V8.1072C47.5711 7.63573 47.7253 7.24587 48.0335 6.9376C48.3418 6.6112 48.7317 6.448 49.2031 6.448C49.6746 6.448 50.0645 6.6112 50.3727 6.9376C50.681 7.24587 50.8351 7.63573 50.8351 8.1072V15.016C50.8351 16.1221 51.0799 16.9472 51.5695 17.4912C52.0591 18.0171 52.7935 18.28 53.7727 18.28C54.7701 18.28 55.5135 18.0171 56.0031 17.4912C56.4927 16.9472 56.7375 16.1221 56.7375 15.016V8.1072C56.7375 7.63573 56.8917 7.24587 57.1999 6.9376C57.5082 6.6112 57.8981 6.448 58.3695 6.448ZM62.692 18.7424C62.5107 18.4885 62.4291 18.1621 62.4472 17.7632C62.4653 17.3643 62.7011 17.0197 63.1544 16.7296C63.4445 16.5483 63.7528 16.4757 64.0792 16.512C64.4056 16.5301 64.7229 16.6933 65.0312 17.0016C65.5571 17.5275 66.1101 17.9355 66.6904 18.2256C67.2707 18.5157 67.996 18.6608 68.8664 18.6608C69.1384 18.6427 69.4376 18.6064 69.764 18.552C70.0904 18.4795 70.3715 18.3344 70.6072 18.1168C70.8611 17.8811 70.988 17.5275 70.988 17.056C70.988 16.6571 70.852 16.3397 70.58 16.104C70.308 15.8683 69.9453 15.6688 69.492 15.5056C69.0568 15.3424 68.5672 15.1883 68.0232 15.0432C67.4611 14.88 66.8808 14.6987 66.2824 14.4992C65.7021 14.2997 65.1672 14.0459 64.6776 13.7376C64.188 13.4112 63.7891 12.9851 63.4808 12.4592C63.1725 11.9333 63.0184 11.2715 63.0184 10.4736C63.0184 9.56693 63.2723 8.79627 63.78 8.1616C64.2877 7.52693 64.9405 7.03733 65.7384 6.6928C66.5544 6.34826 67.4067 6.176 68.2952 6.176C68.8573 6.176 69.4467 6.24853 70.0632 6.3936C70.6797 6.52053 71.2691 6.73813 71.8312 7.0464C72.3933 7.33653 72.8648 7.7264 73.2456 8.216C73.4451 8.488 73.5629 8.8144 73.5992 9.1952C73.6355 9.576 73.4632 9.92053 73.0824 10.2288C72.8104 10.4464 72.4931 10.5461 72.1304 10.528C71.7677 10.4917 71.4685 10.3648 71.2328 10.1472C70.9245 9.74826 70.5075 9.43093 69.9816 9.1952C69.4739 8.95946 68.8845 8.8416 68.2136 8.8416C67.9416 8.8416 67.6424 8.87786 67.316 8.9504C67.0077 9.0048 66.7357 9.1408 66.5 9.3584C66.2643 9.55786 66.1464 9.88426 66.1464 10.3376C66.1464 10.7547 66.2824 11.0901 66.5544 11.344C66.8264 11.5797 67.1891 11.7792 67.6424 11.9424C68.1139 12.0875 68.6125 12.2325 69.1384 12.3776C69.6824 12.5227 70.2355 12.6949 70.7976 12.8944C71.3597 13.0939 71.8765 13.3568 72.348 13.6832C72.8195 14.0096 73.2003 14.4357 73.4904 14.9616C73.7805 15.4693 73.9256 16.1221 73.9256 16.92C73.9256 17.8448 73.6536 18.6336 73.1096 19.2864C72.5656 19.9392 71.8856 20.4379 71.0696 20.7824C70.2536 21.1088 69.4195 21.272 68.5672 21.272C67.4973 21.272 66.4275 21.0907 65.3576 20.728C64.2877 20.3472 63.3992 19.6853 62.692 18.7424Z" fill="#FF7A7A"/>
</svg>
