<svg width="244" height="125" viewBox="0 0 244 125" fill="none" xmlns="http://www.w3.org/2000/svg">
<path d="M9.05524 38.2648H70.91C77.4215 38.2648 82.7 43.5433 82.7 50.0548V77.5648C82.7 84.0762 77.4215 89.3548 70.91 89.3548H20.6415C16.3477 89.3548 12.8669 85.874 12.8669 81.5802C12.8669 77.2864 16.3477 73.8056 20.6415 73.8056H43.3422C48.2494 73.8056 52.2274 69.8276 52.2274 64.9204C52.2274 60.0133 48.2494 56.0352 43.3422 56.0352H9.05523C4.14806 56.0352 0.170013 52.0572 0.170013 47.15C0.170013 42.2428 4.14806 38.2648 9.05524 38.2648Z" fill="#EA7C7C"/>
<g clip-path="url(#clip0_91_55)">
<rect x="60.43" y="0.275024" width="183.4" height="124.45" rx="20.96" fill="white"/>
<path d="M26.37 -31.8201L59.8601 0.929878L141.436 73.5083C147.394 78.8089 156.377 78.8089 162.334 73.5083L243.911 0.929878L284.44 -33.1301" stroke="#EA7C7C" stroke-width="15.72"/>
<path d="M70.255 6.82495H233.35" stroke="#EA7C7C" stroke-width="15.72"/>
<path d="M65.67 6.82495V103.765C65.67 112.447 72.7081 119.485 81.39 119.485H222.87C231.552 119.485 238.59 112.447 238.59 103.765V6.82495" stroke="#EA7C7C" stroke-width="15.72"/>
</g>
<defs>
<clipPath id="clip0_91_55">
<rect x="60.43" y="0.275024" width="183.4" height="124.45" rx="20.96" fill="white"/>
</clipPath>
</defs>
</svg>
